<svg xmlns="http://www.w3.org/2000/svg" version="1.1" viewBox="-5.0 -10.0 110.0 135.0">
 <path d="m68.082 38.875-10.168-5.082-5.082-10.168c-1.043-2.125-4.543-2.125-5.582 0l-5.082 10.168-10.168 5.082c-1.043 0.54297-1.707 1.625-1.707 2.793s0.66797 2.25 1.707 2.793l10.168 5.082 5.082 10.168c0.54297 1.043 1.625 1.75 2.793 1.75s2.25-0.66797 2.793-1.75l5.082-10.168 10.168-5.082c1.043-0.54297 1.707-1.625 1.707-2.793s-0.66797-2.25-1.707-2.793zm-13.914 5.543c-0.625 0.29297-1.082 0.79297-1.418 1.418l-2.75 5.543-2.75-5.543c-0.29297-0.625-0.79297-1.082-1.418-1.418l-5.5-2.75 5.5-2.75c0.625-0.29297 1.082-0.79297 1.418-1.418l2.75-5.543 2.75 5.543c0.29297 0.625 0.79297 1.082 1.418 1.418l5.5 2.75zm29.164-35.043h-66.664c-4 0-7.293 3.293-7.293 7.293v50c0 4 3.293 7.293 7.293 7.293h21.582l9.082 15.168c0.58203 0.95703 1.582 1.5 2.668 1.5 1.082 0 2.125-0.58203 2.668-1.5l9.082-15.168h21.582c4 0 7.293-3.293 7.293-7.293v-50c0-4-3.293-7.293-7.293-7.293zm1.043 57.293c0 0.58203-0.45703 1.043-1.043 1.043h-23.332c-1.082 0-2.125 0.58203-2.668 1.5l-7.332 12.207-7.332-12.207c-0.58203-0.95703-1.582-1.5-2.668-1.5h-23.332c-0.58203 0-1.043-0.45703-1.043-1.043v-50c0-0.58203 0.45703-1.043 1.043-1.043h66.668c0.58203 0 1.043 0.45703 1.043 1.043v50z"/>
<text x="0.0" y="117.5" font-size="5.0" font-weight="bold" font-family="Arbeit Regular, Helvetica, Arial-Unicode, Arial, Sans-serif" fill="#000000">Created by Dwi ridwanto</text><text x="0.0" y="122.5" font-size="5.0" font-weight="bold" font-family="Arbeit Regular, Helvetica, Arial-Unicode, Arial, Sans-serif" fill="#000000">from Noun Project</text></svg>