<svg xmlns="http://www.w3.org/2000/svg" version="1.1" viewBox="-5.0 -10.0 110.0 135.0">
 <path d="m86.75 30.168c2.832-2.832 2.832-7.457 0-10.293l-6.625-6.625c-2.832-2.832-7.457-2.832-10.293 0l-56.582 56.582c-2.832 2.832-2.832 7.457 0 10.293l6.625 6.625c1.418 1.418 3.293 2.125 5.168 2.125s3.75-0.70703 5.168-2.125l56.625-56.625zm-12.5-12.5s0.45703-0.29297 0.75-0.29297 0.54297 0.082031 0.75 0.29297l6.625 6.625c0.41797 0.41797 0.41797 1.082 0 1.457l-11.5 11.5-8.082-8.082 11.5-11.5zm-48.5 64.664c-0.41797 0.41797-1.082 0.41797-1.457 0l-6.625-6.625c-0.41797-0.41797-0.41797-1.082 0-1.457l40.668-40.668 8.082 8.082zm-12.793-41.125-1.832-0.91797c-1.043-0.54297-1.707-1.625-1.707-2.793 0-1.168 0.66797-2.25 1.707-2.793l1.832-0.91797 0.91797-1.832c1.043-2.125 4.543-2.125 5.582 0l0.91797 1.832 1.832 0.91797c1.043 0.54297 1.707 1.625 1.707 2.793 0 1.168-0.66797 2.25-1.707 2.793l-1.832 0.91797-0.91797 1.832c-0.54297 1.043-1.625 1.707-2.793 1.707-1.168 0-2.25-0.66797-2.793-1.707l-0.91797-1.832zm13.086-22.457c0-1.168 0.66797-2.25 1.707-2.793l3.25-1.625 1.625-3.25c1.043-2.125 4.543-2.125 5.582 0l1.625 3.25 3.25 1.625c1.043 0.54297 1.707 1.625 1.707 2.793s-0.66797 2.25-1.707 2.793l-3.25 1.625-1.625 3.25c-0.54297 1.043-1.625 1.707-2.793 1.707-1.168 0-2.25-0.66797-2.793-1.707l-1.625-3.25-3.25-1.625c-1.043-0.54297-1.707-1.625-1.707-2.793zm62.875 47.207-6-3-3-6c-1.043-2.125-4.543-2.125-5.582 0l-3 6-6 3c-1.043 0.54297-1.707 1.625-1.707 2.793s0.66797 2.25 1.707 2.793l6 3 3 6c0.54297 1.043 1.625 1.75 2.793 1.75 1.168 0 2.25-0.66797 2.793-1.75l3-6 6-3c1.043-0.54297 1.707-1.625 1.707-2.793s-0.66797-2.25-1.707-2.793zm-9.75 3.4609c-0.625 0.29297-1.082 0.79297-1.418 1.418l-0.66797 1.375-0.66797-1.375c-0.29297-0.625-0.79297-1.082-1.418-1.418l-1.332-0.66797 1.332-0.66797c0.625-0.29297 1.082-0.79297 1.418-1.418l0.66797-1.375 0.66797 1.375c0.29297 0.625 0.79297 1.082 1.418 1.418l1.332 0.66797z"/>
<text x="0.0" y="117.5" font-size="5.0" font-weight="bold" font-family="Arbeit Regular, Helvetica, Arial-Unicode, Arial, Sans-serif" fill="#000000">Created by Dwi ridwanto</text><text x="0.0" y="122.5" font-size="5.0" font-weight="bold" font-family="Arbeit Regular, Helvetica, Arial-Unicode, Arial, Sans-serif" fill="#000000">from Noun Project</text></svg>