<svg xmlns="http://www.w3.org/2000/svg" version="1.1" viewBox="-5.0 -10.0 110.0 135.0">
 <path d="m83.332 9.375h-37.5c-4 0-7.293 3.293-7.293 7.293v21.875h-21.875c-4 0-7.293 3.293-7.293 7.293v37.5c0 4 3.293 7.293 7.293 7.293h37.5c4 0 7.293-3.293 7.293-7.293v-21.875h21.875c4 0 7.293-3.293 7.293-7.293v-37.5c0-4-3.293-7.293-7.293-7.293zm-28.125 73.957c0 0.58203-0.45703 1.043-1.043 1.043h-37.496c-0.58203 0-1.043-0.45703-1.043-1.043v-2.543l25.375-18.125c0.375-0.29297 0.875-0.29297 1.25 0l12.957 9.707zm0-18.75-9.207-6.918c-2.582-1.918-6.043-1.957-8.625-0.082031l-21.75 15.5v-27.25c0-0.58203 0.45703-1.043 1.043-1.043h37.5c0.58203 0 1.043 0.45703 1.043 1.043v18.75zm29.168-10.414c0 0.58203-0.45703 1.043-1.043 1.043h-21.875v-6.625h0.042969c1.207 0 2.418-0.33203 3.457-1.043l10.375-6.918c1.75-1.168 2.793-3.082 2.793-5.207s-1.043-4.043-2.793-5.207l-10.375-6.918c-1.918-1.293-4.375-1.418-6.418-0.33203-2.082 1.125-3.332 3.25-3.332 5.543v10.168c-0.33203-0.082031-0.66797-0.125-1.043-0.125h-9.375v-21.875c0-0.58203 0.45703-1.043 1.043-1.043h37.5c0.58203 0 1.043 0.45703 1.043 1.043v37.5zm-22.918-11.836v-13.832h0.042969l10.375 6.957zm25 28.5v8.332c0 4-3.293 7.293-7.293 7.293h-8.332c-1.707 0-3.125-1.418-3.125-3.125s1.418-3.125 3.125-3.125h8.332c0.58203 0 1.043-0.45703 1.043-1.043v-8.332c0-1.707 1.418-3.125 3.125-3.125s3.125 1.418 3.125 3.125zm-72.914-41.664v-8.332c0-4 3.293-7.293 7.293-7.293h8.332c1.707 0 3.125 1.418 3.125 3.125s-1.418 3.125-3.125 3.125h-8.332c-0.58203 0-1.043 0.45703-1.043 1.043v8.332c0 1.707-1.418 3.125-3.125 3.125s-3.125-1.418-3.125-3.125zm16.664 25c0 2.875-2.332 5.207-5.207 5.207s-5.207-2.332-5.207-5.207 2.332-5.207 5.207-5.207 5.207 2.332 5.207 5.207z"/>
<text x="0.0" y="117.5" font-size="5.0" font-weight="bold" font-family="Arbeit Regular, Helvetica, Arial-Unicode, Arial, Sans-serif" fill="#000000">Created by Dwi ridwanto</text><text x="0.0" y="122.5" font-size="5.0" font-weight="bold" font-family="Arbeit Regular, Helvetica, Arial-Unicode, Arial, Sans-serif" fill="#000000">from Noun Project</text></svg>