<svg xmlns="http://www.w3.org/2000/svg" version="1.1" viewBox="-5.0 -10.0 110.0 135.0">
 <path d="m50 9.375c-22.418 0-40.625 18.207-40.625 40.625s18.207 40.625 40.625 40.625 40.625-18.207 40.625-40.625-18.207-40.625-40.625-40.625zm0 75c-18.957 0-34.375-15.418-34.375-34.375s15.418-34.375 34.375-34.375 34.375 15.418 34.375 34.375-15.418 34.375-34.375 34.375zm14.375-53.543c1.375 1.043 1.668 3 0.625 4.375l-10.082 13.418c0.125 0.45703 0.29297 0.875 0.29297 1.375 0 2.875-2.332 5.207-5.207 5.207s-5.207-2.332-5.207-5.207 2.332-5.207 5.207-5.207l10-13.332c1.043-1.375 3-1.668 4.375-0.625z"/>
<text x="0.0" y="117.5" font-size="5.0" font-weight="bold" font-family="Arbeit Regular, Helvetica, Arial-Unicode, Arial, Sans-serif" fill="#000000">Created by Dwi ridwanto</text><text x="0.0" y="122.5" font-size="5.0" font-weight="bold" font-family="Arbeit Regular, Helvetica, Arial-Unicode, Arial, Sans-serif" fill="#000000">from Noun Project</text></svg>