<svg xmlns="http://www.w3.org/2000/svg" version="1.1" viewBox="-5.0 -10.0 110.0 135.0">
 <path d="m34.082 50.293c0 6.168-5 11.168-11.168 11.168h-2.082c-2.875 0-5.207 2.332-5.207 5.207s2.332 5.207 5.207 5.207h5.957c1.707 0 3.125 1.418 3.125 3.125s-1.418 3.125-3.125 3.125h-5.957c-6.332 0-11.457-5.125-11.457-11.457s5.125-11.457 11.457-11.457h2.082c2.707 0 4.918-2.207 4.918-4.918 0-2.707-2.207-4.918-4.918-4.918h-6.25c-1.707 0-3.125-1.418-3.125-3.125s1.418-3.125 3.125-3.125h6.25c6.168 0 11.168 5 11.168 11.168zm52.836-9.25-34.582 36.082c-0.58203 0.58203-1.375 0.95703-2.207 0.95703l-11.793 0.25h-0.082032c-1.707 0-3.082-1.375-3.125-3.043l-0.25-11.793c0-0.83203 0.29297-1.625 0.875-2.207l34.582-36.082c2.125-2.207 4.957-3.457 8.043-3.543 3.043-0.125 5.957 1.043 8.168 3.168 4.582 4.375 4.707 11.625 0.33203 16.207zm-3.0859-8.043c0-1.375-0.58203-2.707-1.582-3.668-1-0.95703-2.332-1.418-3.707-1.457-1.375 0-2.668 0.58203-3.668 1.582l-33.707 35.168 0.16797 7.375 7.375-0.16797 33.707-35.168c0.95703-1 1.457-2.332 1.457-3.707z"/>
<text x="0.0" y="117.5" font-size="5.0" font-weight="bold" font-family="Arbeit Regular, Helvetica, Arial-Unicode, Arial, Sans-serif" fill="#000000">Created by Dwi ridwanto</text><text x="0.0" y="122.5" font-size="5.0" font-weight="bold" font-family="Arbeit Regular, Helvetica, Arial-Unicode, Arial, Sans-serif" fill="#000000">from Noun Project</text></svg>