<?xml version="1.0" encoding="UTF-8" standalone="no"?>
<!-- Created with Inkscape (http://www.inkscape.org/) -->

<svg
   width="117.46965mm"
   height="21.030703mm"
   viewBox="0 0 117.46965 21.030703"
   version="1.1"
   id="svg1"
   inkscape:version="1.4.3 (0d15f75042, 2025-12-25)"
   sodipodi:docname="videotrim-logo-2.svg"
   xmlns:inkscape="http://www.inkscape.org/namespaces/inkscape"
   xmlns:sodipodi="http://sodipodi.sourceforge.net/DTD/sodipodi-0.dtd"
   xmlns="http://www.w3.org/2000/svg"
   xmlns:svg="http://www.w3.org/2000/svg">
  <sodipodi:namedview
     id="namedview1"
     pagecolor="#ffffff"
     bordercolor="#000000"
     borderopacity="0.25"
     inkscape:showpageshadow="2"
     inkscape:pageopacity="0.0"
     inkscape:pagecheckerboard="0"
     inkscape:deskcolor="#d1d1d1"
     inkscape:document-units="mm"
     inkscape:zoom="1.0873798"
     inkscape:cx="324.17378"
     inkscape:cy="193.58462"
     inkscape:window-width="1920"
     inkscape:window-height="1008"
     inkscape:window-x="0"
     inkscape:window-y="0"
     inkscape:window-maximized="1"
     inkscape:current-layer="layer1" />
  <defs
     id="defs1" />
  <g
     inkscape:label="Layer 1"
     inkscape:groupmode="layer"
     id="layer1"
     transform="translate(-26.431363,-30.407148)">
    <rect
       style="fill:#e5392a;fill-opacity:1;stroke-width:0.970034"
       id="rect1"
       width="49.480259"
       height="21.030703"
       x="94.420753"
       y="30.407148"
       ry="1.3617001" />
    <path
       d="m 26.736314,36.981039 c -0.260791,0 -0.391186,0.223535 -0.242163,0.465698 l 5.1413,8.922764 c 0.335303,0.61472 0.707861,0.838255 1.546116,0.838255 h 1.50886 c 0.819627,0 1.229441,-0.223535 1.564743,-0.838255 l 5.104045,-8.922764 c 0.111767,-0.242163 0,-0.465698 -0.260791,-0.465698 h -2.049069 c -0.223535,0 -0.335302,0.07451 -0.428441,0.260791 l -4.396185,7.693322 c -0.05588,0.111768 -0.09314,0.111768 -0.186279,0.111768 h -0.09314 c -0.09314,0 -0.111768,0 -0.186279,-0.111768 L 29.34422,37.24183 c -0.09314,-0.186279 -0.223535,-0.260791 -0.44707,-0.260791 z m 16.504317,0 c -0.279418,0 -0.409814,0.149024 -0.409814,0.409814 v 9.407089 c 0,0.279419 0.130396,0.409814 0.409814,0.409814 h 1.825534 c 0.260791,0 0.409814,-0.130395 0.409814,-0.409814 v -9.407089 c 0,-0.26079 -0.149023,-0.409814 -0.409814,-0.409814 z m 0,-3.781463 c -0.279418,0 -0.409814,0.130395 -0.409814,0.409814 v 1.76965 c 0,0.279419 0.130396,0.428442 0.409814,0.428442 h 1.825534 c 0.279419,0 0.409814,-0.149023 0.409814,-0.428442 v -1.76965 c 0,-0.279419 -0.130395,-0.409814 -0.409814,-0.409814 z m 8.866888,3.781463 c -3.27851,0 -4.414812,1.024535 -4.414812,3.762836 v 2.701045 c 0,2.756929 1.136302,3.762836 4.414812,3.762836 h 5.215812 c 3.297138,0 4.43344,-1.005907 4.43344,-3.762836 v -9.798275 c 0,-0.279418 -0.130395,-0.409813 -0.409814,-0.409813 h -1.825534 c -0.26079,0 -0.409814,0.130395 -0.409814,0.409813 v 3.334394 z m 4.955022,7.916858 H 52.36831 c -1.601999,0 -2.030441,-0.391186 -2.030441,-1.974558 v -1.657883 c 0,-1.583371 0.428442,-1.974557 2.030441,-1.974557 h 6.743299 v 3.63244 c 0,1.583372 -0.447069,1.974558 -2.049068,1.974558 z m 11.027723,-7.916858 c -3.297139,0 -4.43344,1.024535 -4.43344,3.762836 v 2.701045 c 0,2.756929 1.136301,3.762836 4.43344,3.762836 h 8.028624 c 0.223535,0 0.335302,-0.111767 0.335302,-0.335302 v -1.639255 c 0,-0.223535 -0.111767,-0.335302 -0.335302,-0.335302 h -7.767834 c -1.601999,0 -2.049069,-0.391186 -2.049069,-1.564744 v -0.335302 h 9.407089 c 0.745116,0 1.061791,-0.279419 1.061791,-1.043163 v -1.918673 c 0,-2.30986 -0.726488,-3.054976 -3.222627,-3.054976 z m -1.788279,4.098138 v -0.372558 c 0,-1.173557 0.391186,-1.50886 2.049069,-1.50886 h 4.656975 c 0.912767,0 1.136302,0.186279 1.136302,0.912767 v 0.651977 c 0,0.204907 -0.09314,0.316674 -0.316674,0.316674 z m 16.727844,-4.098138 c -3.259882,0 -4.414812,0.987279 -4.414812,3.762836 v 2.701045 c 0,2.775557 1.15493,3.762836 4.414812,3.762836 h 5.271696 c 3.259882,0 4.43344,-0.987279 4.43344,-3.762836 v -2.701045 c 0,-2.775557 -1.173558,-3.762836 -4.43344,-3.762836 z m -1.76965,4.228534 c 0,-1.546116 0.409814,-1.937302 2.030441,-1.937302 h 4.750114 c 1.639255,0 2.049069,0.391186 2.049069,1.937302 v 1.76965 c 0,1.564743 -0.409814,1.955929 -2.049069,1.955929 H 83.29062 c -1.620627,0 -2.030441,-0.391186 -2.030441,-1.955929 z"
       id="text1"
       style="font-size:18.6279px;font-family:Conthrax;-inkscape-font-specification:'Conthrax, Normal';fill:#e5392a"
       aria-label="video" />
    <path
       d="m 96.62992,36.981039 c -0.223535,0 -0.335302,0.111768 -0.335302,0.335303 v 1.620627 c 0,0.223535 0.111767,0.335302 0.335302,0.335302 h 1.76965 v 4.228533 c 0,2.738301 0.894139,3.706952 3.78146,3.706952 h 2.27261 c 0.22353,0 0.3353,-0.111767 0.3353,-0.335302 v -1.620627 c 0,-0.223535 -0.11177,-0.335303 -0.3353,-0.335303 h -1.82554 c -1.21081,0 -1.56474,-0.372558 -1.56474,-1.41572 v -4.228533 h 3.27851 c 0.22353,0 0.3353,-0.111767 0.3353,-0.335302 v -1.620627 c 0,-0.223535 -0.11177,-0.335303 -0.3353,-0.335303 h -3.27851 v -2.458882 c 0,-0.279419 -0.14902,-0.428442 -0.40981,-0.428442 h -1.844166 c -0.26079,0 -0.409814,0.149023 -0.409814,0.428442 v 2.458882 z m 14.0268,0 c -3.27851,0 -4.41481,1.024535 -4.41481,3.762836 v 6.054067 c 0,0.279419 0.1304,0.409814 0.40982,0.409814 h 1.82553 c 0.27942,0 0.40981,-0.130395 0.40981,-0.409814 v -5.532486 c 0,-1.564743 0.40982,-1.974557 2.03044,-1.974557 h 4.95503 c 0.22353,0 0.3353,-0.111767 0.3353,-0.335302 v -1.639255 c 0,-0.223535 -0.11177,-0.335303 -0.3353,-0.335303 z m 7.48843,0 c -0.27942,0 -0.40982,0.149024 -0.40982,0.409814 v 9.407089 c 0,0.279419 0.1304,0.409814 0.40982,0.409814 h 1.82553 c 0.26079,0 0.40981,-0.130395 0.40981,-0.409814 v -9.407089 c 0,-0.26079 -0.14902,-0.409814 -0.40981,-0.409814 z m 0,-3.781463 c -0.27942,0 -0.40982,0.130395 -0.40982,0.409814 v 1.76965 c 0,0.279419 0.1304,0.428442 0.40982,0.428442 h 1.82553 c 0.27942,0 0.40981,-0.149023 0.40981,-0.428442 v -1.76965 c 0,-0.279419 -0.13039,-0.409814 -0.40981,-0.409814 z m 8.97865,3.781463 c -3.27851,0 -4.41481,1.024535 -4.41481,3.762836 v 6.054067 c 0,0.279419 0.13039,0.409814 0.40981,0.409814 h 1.82554 c 0.27942,0 0.40981,-0.130395 0.40981,-0.409814 v -5.40209 c 0,-1.583372 0.42844,-2.049069 2.03044,-2.049069 h 3.16674 v 7.451159 c 0,0.279419 0.1304,0.409814 0.40982,0.409814 h 1.82553 c 0.27942,0 0.40982,-0.130395 0.40982,-0.409814 v -7.451159 h 3.29713 c 1.54612,0 1.91868,0.391185 1.91868,2.049069 v 5.40209 c 0,0.279419 0.13039,0.409814 0.40981,0.409814 h 1.82554 c 0.27941,0 0.40981,-0.130395 0.40981,-0.409814 v -6.054067 c 0,-2.738301 -1.1363,-3.762836 -4.41481,-3.762836 z"
       id="text1-1"
       style="font-size:18.6279px;font-family:Conthrax;-inkscape-font-specification:'Conthrax, Normal';fill:#f9f9f9"
       aria-label="trim" />
  </g>
</svg>
