<svg width="535" height="112" viewBox="0 0 535 112" fill="none" xmlns="http://www.w3.org/2000/svg">
<path d="M276.56 0H514.56C525.606 0 534.56 8.95431 534.56 20V92C534.56 103.046 525.606 112 514.56 112H276.56V0Z" fill="#FA2523"/>
<path d="M21.312 87L0 36.216H14.976L28.512 74.136L25.344 74.712L39.552 36.216H54.144L31.776 87H21.312Z" fill="#FA2523"/>
<path d="M63.6217 87V36.216H77.2538V87H63.6217ZM70.3418 25.752C67.7178 25.752 65.6698 25.112 64.1978 23.832C62.7258 22.552 61.9897 20.728 61.9897 18.36C61.9897 16.184 62.7258 14.424 64.1978 13.08C65.7338 11.672 67.7818 10.968 70.3418 10.968C72.9658 10.968 75.0137 11.64 76.4857 12.984C77.9577 14.264 78.6937 16.056 78.6937 18.36C78.6937 20.6 77.9257 22.392 76.3897 23.736C74.9177 25.08 72.9018 25.752 70.3418 25.752Z" fill="#FA2523"/>
<path d="M111.686 87.96C107.269 87.96 103.302 86.84 99.7815 84.6C96.2615 82.296 93.4775 79.192 91.4295 75.288C89.4455 71.32 88.4535 66.744 88.4535 61.56C88.4535 56.504 89.4455 51.992 91.4295 48.024C93.4775 44.056 96.2295 40.92 99.6855 38.616C103.206 36.312 107.205 35.16 111.686 35.16C114.054 35.16 116.326 35.544 118.502 36.312C120.742 37.016 122.725 38.008 124.453 39.288C126.245 40.568 127.685 42.008 128.773 43.608C129.861 45.144 130.47 46.776 130.598 48.504L127.142 49.08V15.96H140.773V87H127.91L127.334 75.288L130.021 75.576C129.893 77.176 129.318 78.712 128.294 80.184C127.27 81.656 125.894 83 124.166 84.216C122.502 85.368 120.582 86.296 118.406 87C116.294 87.64 114.054 87.96 111.686 87.96ZM114.757 76.632C117.318 76.632 119.558 75.992 121.478 74.712C123.398 73.432 124.902 71.672 125.99 69.432C127.078 67.192 127.622 64.568 127.622 61.56C127.622 58.616 127.078 56.024 125.99 53.784C124.902 51.48 123.398 49.72 121.478 48.504C119.558 47.224 117.318 46.584 114.757 46.584C112.198 46.584 109.957 47.224 108.037 48.504C106.181 49.72 104.709 51.48 103.621 53.784C102.597 56.024 102.086 58.616 102.086 61.56C102.086 64.568 102.597 67.192 103.621 69.432C104.709 71.672 106.181 73.432 108.037 74.712C109.957 75.992 112.198 76.632 114.757 76.632Z" fill="#FA2523"/>
<path d="M178.16 87.96C172.655 87.96 167.856 86.84 163.76 84.6C159.664 82.36 156.464 79.288 154.16 75.384C151.855 71.48 150.704 67 150.704 61.944C150.704 58.04 151.344 54.456 152.624 51.192C153.904 47.928 155.695 45.112 157.999 42.744C160.303 40.312 163.023 38.456 166.16 37.176C169.359 35.832 172.815 35.16 176.527 35.16C179.983 35.16 183.184 35.8 186.128 37.08C189.072 38.296 191.6 40.056 193.712 42.36C195.888 44.6 197.552 47.256 198.704 50.328C199.856 53.4 200.368 56.76 200.24 60.408L200.143 64.632H159.344L157.135 56.28H188.911L187.376 58.008V55.896C187.248 54.168 186.672 52.6 185.648 51.192C184.688 49.784 183.44 48.696 181.904 47.928C180.368 47.16 178.639 46.776 176.719 46.776C173.903 46.776 171.504 47.32 169.52 48.408C167.6 49.496 166.128 51.096 165.104 53.208C164.08 55.32 163.568 57.88 163.568 60.888C163.568 63.96 164.208 66.616 165.488 68.856C166.832 71.096 168.687 72.856 171.055 74.136C173.487 75.352 176.336 75.96 179.6 75.96C181.84 75.96 183.887 75.608 185.743 74.904C187.599 74.2 189.583 72.984 191.695 71.256L198.223 80.376C196.367 82.04 194.319 83.448 192.079 84.6C189.839 85.688 187.535 86.52 185.167 87.096C182.799 87.672 180.463 87.96 178.16 87.96Z" fill="#FA2523"/>
<path d="M233.93 87.96C228.746 87.96 224.106 86.84 220.01 84.6C215.978 82.296 212.778 79.16 210.41 75.192C208.105 71.224 206.954 66.68 206.954 61.56C206.954 56.44 208.105 51.928 210.41 48.024C212.778 44.056 215.978 40.92 220.01 38.616C224.106 36.312 228.746 35.16 233.93 35.16C239.05 35.16 243.626 36.312 247.658 38.616C251.754 40.92 254.954 44.056 257.258 48.024C259.562 51.928 260.714 56.44 260.714 61.56C260.714 66.68 259.562 71.224 257.258 75.192C254.954 79.16 251.754 82.296 247.658 84.6C243.626 86.84 239.05 87.96 233.93 87.96ZM233.93 76.056C236.426 76.056 238.666 75.448 240.65 74.232C242.634 72.952 244.17 71.224 245.258 69.048C246.41 66.808 246.986 64.312 246.986 61.56C246.986 58.744 246.41 56.248 245.258 54.072C244.17 51.832 242.634 50.104 240.65 48.888C238.666 47.608 236.426 46.968 233.93 46.968C231.37 46.968 229.097 47.608 227.113 48.888C225.129 50.168 223.561 51.896 222.41 54.072C221.257 56.248 220.713 58.744 220.777 61.56C220.713 64.312 221.257 66.808 222.41 69.048C223.561 71.224 225.129 72.952 227.113 74.232C229.097 75.448 231.37 76.056 233.93 76.056Z" fill="#FA2523"/>
<path d="M309.272 87V23.352H322.904V87H309.272ZM299.768 48.408V36.216H333.272V48.408H299.768Z" fill="#FEF2E9"/>
<path d="M345.997 87V36.216H359.149L359.629 52.536L357.325 49.176C358.093 46.552 359.341 44.184 361.069 42.072C362.797 39.896 364.813 38.2 367.117 36.984C369.485 35.768 371.949 35.16 374.509 35.16C375.597 35.16 376.653 35.256 377.677 35.448C378.701 35.64 379.565 35.864 380.269 36.12L376.621 51.096C375.853 50.712 374.925 50.392 373.837 50.136C372.749 49.816 371.629 49.656 370.477 49.656C368.941 49.656 367.501 49.944 366.157 50.52C364.877 51.032 363.757 51.8 362.797 52.824C361.837 53.784 361.069 54.936 360.493 56.28C359.981 57.624 359.725 59.096 359.725 60.696V87H345.997Z" fill="#FEF2E9"/>
<path d="M393.083 87V36.216H406.715V87H393.083ZM399.803 25.752C397.179 25.752 395.131 25.112 393.659 23.832C392.187 22.552 391.451 20.728 391.451 18.36C391.451 16.184 392.187 14.424 393.659 13.08C395.195 11.672 397.243 10.968 399.803 10.968C402.427 10.968 404.475 11.64 405.947 12.984C407.419 14.264 408.155 16.056 408.155 18.36C408.155 20.6 407.387 22.392 405.851 23.736C404.379 25.08 402.363 25.752 399.803 25.752Z" fill="#FEF2E9"/>
<path d="M425.019 87V36.216H438.171L438.459 45.912L436.443 46.296C437.147 44.632 438.075 43.128 439.227 41.784C440.379 40.44 441.723 39.288 443.259 38.328C444.859 37.368 446.523 36.632 448.251 36.12C449.979 35.544 451.707 35.256 453.435 35.256C456.059 35.256 458.427 35.672 460.539 36.504C462.651 37.336 464.443 38.648 465.915 40.44C467.387 42.168 468.539 44.472 469.371 47.352L467.259 47.16L467.931 45.624C468.763 44.088 469.819 42.712 471.099 41.496C472.379 40.216 473.819 39.128 475.419 38.232C477.019 37.272 478.683 36.536 480.411 36.024C482.139 35.512 483.835 35.256 485.499 35.256C489.467 35.256 492.763 36.056 495.387 37.656C498.011 39.192 499.963 41.528 501.243 44.664C502.587 47.8 503.259 51.64 503.259 56.184V87H489.627V57.144C489.627 54.84 489.307 52.952 488.667 51.48C488.027 50.008 487.099 48.92 485.883 48.216C484.667 47.448 483.099 47.064 481.179 47.064C479.707 47.064 478.331 47.32 477.051 47.832C475.835 48.28 474.747 48.952 473.787 49.848C472.891 50.68 472.187 51.672 471.675 52.824C471.163 53.976 470.907 55.256 470.907 56.664V87H457.275V57.048C457.275 54.936 456.923 53.144 456.219 51.672C455.579 50.136 454.651 48.984 453.435 48.216C452.219 47.448 450.715 47.064 448.923 47.064C447.451 47.064 446.075 47.32 444.795 47.832C443.579 48.28 442.523 48.952 441.627 49.848C440.731 50.68 439.995 51.672 439.419 52.824C438.907 53.976 438.651 55.224 438.651 56.568V87H425.019Z" fill="#FEF2E9"/>
</svg>
